# xmcd
#
# Track frame offsets:
#	150
#	16115
#	32205
#	48687
#	64605
#	80832
#	96835
#	113797
#	133735
#	149200
#	165850
#	184205
#	201437
#	215605
#	228792
#	243060
#	259667
#
# Disc length: 3667 seconds
#
# Revision: 1
# Processed by: cddbd v1.5.2PL0 Copyright (c) Steve Scherf et al.
# Submitted via: audiograbber 1.83.01
#
DISCID=f30e5111
DTITLE=Various Artist - not your daddy's country
DYEAR=2006
DGENRE=Country
TTITLE0=Lonestar - What About Now
TTITLE1=Phil Vassar - In A Real Love
TTITLE2=Martina McBride - Wild Angels
TTITLE3=Andy Griggs - You Won't Ever Be Lonely
TTITLE4=Aaron Lines - You Can't Hide Beautiful
TTITLE5=Ty Herndon - It Must Be Love
TTITLE6=Brad Paisley - Who Needs Pictures
TTITLE7=Sara Evans - Saints and Angels
TTITLE8=Patty Loveless - You Can Feel Bad
TTITLE9=Diamond Rio - Love A Little Stronger
TTITLE10=Kenny Chesney - That's Why I'm Here
TTITLE11=Carolyn Dawn Johnson - Complicated
TTITLE12=Lonestar - Heartbroke Every Day
TTITLE13=Collin Raye - My Kind Of Girl
TTITLE14=Brooks and Dunn - Husbands And Wives
TTITLE15=Diamond Rio - It's All In Your Head
TTITLE16=Lorrie Morgan - Good As I Was To You
EXTD=
EXTT0=
EXTT1=
EXTT2=
EXTT3=
EXTT4=
EXTT5=
EXTT6=
EXTT7=
EXTT8=
EXTT9=
EXTT10=
EXTT11=
EXTT12=
EXTT13=
EXTT14=
EXTT15=
EXTT16=
PLAYORDER=
